<mxfile host="app.diagrams.net" agent="Mozilla/5.0 (Windows NT 10.0; Win64; x64) AppleWebKit/537.36 (KHTML, like Gecko) Chrome/131.0.0.0 Safari/537.36" version="26.0.5">
  <diagram name="Page-1" id="yyYpNguCGIPYK4QD6Ibh">
    <mxGraphModel dx="1909" dy="1038" grid="1" gridSize="10" guides="1" tooltips="1" connect="1" arrows="1" fold="1" page="1" pageScale="1" pageWidth="850" pageHeight="1100" math="0" shadow="0">
      <root>
        <mxCell id="0" />
        <mxCell id="1" parent="0" />
        <mxCell id="CkIWeGJ3tONo70NuX__L-1" value="&lt;font style=&quot;font-size: 16px;&quot;&gt;เจ้าหน้าที่&lt;/font&gt;" style="swimlane;startSize=40;horizontal=0;html=1;whiteSpace=wrap;" vertex="1" parent="1">
          <mxGeometry x="80" y="120" width="1360" height="230" as="geometry" />
        </mxCell>
        <mxCell id="CkIWeGJ3tONo70NuX__L-2" value="" style="edgeStyle=elbowEdgeStyle;fontSize=12;html=1;endArrow=blockThin;endFill=1;rounded=0;exitX=1;exitY=0.5;exitDx=0;exitDy=0;exitPerimeter=0;entryX=0;entryY=0.5;entryDx=0;entryDy=0;entryPerimeter=0;strokeWidth=2;" edge="1" parent="CkIWeGJ3tONo70NuX__L-1" target="CkIWeGJ3tONo70NuX__L-7">
          <mxGeometry width="160" relative="1" as="geometry">
            <mxPoint x="520" y="127.5" as="sourcePoint" />
            <mxPoint x="80" y="317.5" as="targetPoint" />
          </mxGeometry>
        </mxCell>
        <mxCell id="CkIWeGJ3tONo70NuX__L-3" value="" style="edgeStyle=elbowEdgeStyle;fontSize=12;html=1;endArrow=blockThin;endFill=1;rounded=0;exitX=1;exitY=0.5;exitDx=0;exitDy=0;exitPerimeter=0;strokeWidth=2;entryX=0;entryY=0.5;entryDx=0;entryDy=0;entryPerimeter=0;" edge="1" parent="CkIWeGJ3tONo70NuX__L-1" source="CkIWeGJ3tONo70NuX__L-7" target="CkIWeGJ3tONo70NuX__L-10">
          <mxGeometry width="160" relative="1" as="geometry">
            <mxPoint x="530" y="115" as="sourcePoint" />
            <mxPoint x="670" y="85" as="targetPoint" />
          </mxGeometry>
        </mxCell>
        <mxCell id="CkIWeGJ3tONo70NuX__L-4" value="" style="edgeStyle=elbowEdgeStyle;fontSize=12;html=1;endArrow=blockThin;endFill=1;rounded=0;exitX=1;exitY=0.5;exitDx=0;exitDy=0;exitPerimeter=0;strokeWidth=2;entryX=0;entryY=0.5;entryDx=0;entryDy=0;entryPerimeter=0;" edge="1" parent="CkIWeGJ3tONo70NuX__L-1" source="CkIWeGJ3tONo70NuX__L-11" target="CkIWeGJ3tONo70NuX__L-12">
          <mxGeometry width="160" relative="1" as="geometry">
            <mxPoint x="1090" y="312.5" as="sourcePoint" />
            <mxPoint x="1240" y="312.5" as="targetPoint" />
          </mxGeometry>
        </mxCell>
        <mxCell id="CkIWeGJ3tONo70NuX__L-5" value="" style="edgeStyle=elbowEdgeStyle;fontSize=12;html=1;endArrow=blockThin;endFill=1;rounded=0;exitX=1;exitY=0.5;exitDx=0;exitDy=0;exitPerimeter=0;strokeWidth=2;entryX=0;entryY=0.5;entryDx=0;entryDy=0;entryPerimeter=0;" edge="1" parent="CkIWeGJ3tONo70NuX__L-1" source="CkIWeGJ3tONo70NuX__L-12" target="CkIWeGJ3tONo70NuX__L-13">
          <mxGeometry width="160" relative="1" as="geometry">
            <mxPoint x="1160" y="177.5" as="sourcePoint" />
            <mxPoint x="1260" y="177.36" as="targetPoint" />
          </mxGeometry>
        </mxCell>
        <mxCell id="CkIWeGJ3tONo70NuX__L-6" value="&lt;font style=&quot;font-size: 16px;&quot; data-font-src=&quot;https://fonts.googleapis.com/css?family=Sarabun&quot; face=&quot;Sarabun&quot;&gt;&lt;b style=&quot;&quot;&gt;ตรวจสอบข้อมูล&lt;/b&gt;&lt;/font&gt;&lt;div&gt;&lt;font style=&quot;font-size: 16px;&quot; data-font-src=&quot;https://fonts.googleapis.com/css?family=Sarabun&quot; face=&quot;Sarabun&quot;&gt;&lt;b style=&quot;&quot;&gt;รายละเอียด&lt;/b&gt;&lt;/font&gt;&lt;/div&gt;&lt;div&gt;&lt;font style=&quot;font-size: 16px;&quot; data-font-src=&quot;https://fonts.googleapis.com/css?family=Sarabun&quot; face=&quot;Sarabun&quot;&gt;&lt;b style=&quot;&quot;&gt;ขอยืม&lt;/b&gt;&lt;/font&gt;&lt;/div&gt;" style="points=[[0.25,0,0],[0.5,0,0],[0.75,0,0],[1,0.25,0],[1,0.5,0],[1,0.75,0],[0.75,1,0],[0.5,1,0],[0.25,1,0],[0,0.75,0],[0,0.5,0],[0,0.25,0]];shape=mxgraph.bpmn.task;whiteSpace=wrap;rectStyle=rounded;size=10;html=1;container=1;expand=0;collapsible=0;taskMarker=businessRule;strokeWidth=2;" vertex="1" parent="CkIWeGJ3tONo70NuX__L-1">
          <mxGeometry x="380" y="87.5" width="150" height="80" as="geometry" />
        </mxCell>
        <mxCell id="CkIWeGJ3tONo70NuX__L-7" value="" style="points=[[0.25,0.25,0],[0.5,0,0],[0.75,0.25,0],[1,0.5,0],[0.75,0.75,0],[0.5,1,0],[0.25,0.75,0],[0,0.5,0]];shape=mxgraph.bpmn.gateway2;html=1;verticalLabelPosition=bottom;labelBackgroundColor=#ffffff;verticalAlign=top;align=center;perimeter=rhombusPerimeter;outlineConnect=0;outline=none;symbol=none;gwType=exclusive;strokeWidth=2;" vertex="1" parent="CkIWeGJ3tONo70NuX__L-1">
          <mxGeometry x="580" y="102.5" width="50" height="50" as="geometry" />
        </mxCell>
        <mxCell id="CkIWeGJ3tONo70NuX__L-8" value="&lt;font style=&quot;font-size: 16px;&quot; data-font-src=&quot;https://fonts.googleapis.com/css?family=Sarabun&quot; face=&quot;Sarabun&quot;&gt;&lt;b&gt;ผ่าน&lt;/b&gt;&lt;/font&gt;" style="text;html=1;align=center;verticalAlign=middle;whiteSpace=wrap;rounded=0;" vertex="1" parent="CkIWeGJ3tONo70NuX__L-1">
          <mxGeometry x="620" y="87.5" width="60" height="30" as="geometry" />
        </mxCell>
        <mxCell id="CkIWeGJ3tONo70NuX__L-9" value="&lt;font style=&quot;font-size: 16px;&quot; data-font-src=&quot;https://fonts.googleapis.com/css?family=Sarabun&quot; face=&quot;Sarabun&quot;&gt;&lt;b&gt;ไม่ผ่าน&lt;/b&gt;&lt;/font&gt;" style="text;html=1;align=center;verticalAlign=middle;whiteSpace=wrap;rounded=0;" vertex="1" parent="CkIWeGJ3tONo70NuX__L-1">
          <mxGeometry x="610" y="157.5" width="60" height="30" as="geometry" />
        </mxCell>
        <mxCell id="CkIWeGJ3tONo70NuX__L-10" value="&lt;font style=&quot;font-size: 16px;&quot; face=&quot;Sarabun&quot;&gt;&lt;b&gt;เตรียมอุปกรณ์&lt;/b&gt;&lt;/font&gt;" style="points=[[0.25,0,0],[0.5,0,0],[0.75,0,0],[1,0.25,0],[1,0.5,0],[1,0.75,0],[0.75,1,0],[0.5,1,0],[0.25,1,0],[0,0.75,0],[0,0.5,0],[0,0.25,0]];shape=mxgraph.bpmn.task;whiteSpace=wrap;rectStyle=rounded;size=10;html=1;container=1;expand=0;collapsible=0;taskMarker=manual;strokeWidth=2;" vertex="1" parent="CkIWeGJ3tONo70NuX__L-1">
          <mxGeometry x="690" y="87.5" width="120" height="80" as="geometry" />
        </mxCell>
        <mxCell id="CkIWeGJ3tONo70NuX__L-11" value="&lt;font style=&quot;font-size: 16px;&quot; data-font-src=&quot;https://fonts.googleapis.com/css?family=Sarabun&quot; face=&quot;Sarabun&quot;&gt;&lt;b style=&quot;&quot;&gt;ตรวจสอบ&lt;/b&gt;&lt;/font&gt;&lt;div&gt;&lt;b style=&quot;font-size: 16px; font-family: Sarabun; background-color: initial;&quot;&gt;อุปกรณ์ /&lt;/b&gt;&lt;b style=&quot;font-size: 16px; font-family: Sarabun; background-color: initial;&quot;&gt;รายละเอียด&lt;/b&gt;&lt;div&gt;&lt;div&gt;&lt;font style=&quot;font-size: 16px;&quot; data-font-src=&quot;https://fonts.googleapis.com/css?family=Sarabun&quot; face=&quot;Sarabun&quot;&gt;&lt;b style=&quot;&quot;&gt;ก่อนต่อสัญญา&lt;/b&gt;&lt;/font&gt;&lt;/div&gt;&lt;/div&gt;&lt;/div&gt;" style="points=[[0.25,0,0],[0.5,0,0],[0.75,0,0],[1,0.25,0],[1,0.5,0],[1,0.75,0],[0.75,1,0],[0.5,1,0],[0.25,1,0],[0,0.75,0],[0,0.5,0],[0,0.25,0]];shape=mxgraph.bpmn.task;whiteSpace=wrap;rectStyle=rounded;size=10;html=1;container=1;expand=0;collapsible=0;taskMarker=businessRule;strokeWidth=2;" vertex="1" parent="CkIWeGJ3tONo70NuX__L-1">
          <mxGeometry x="932.5" y="87.5" width="165" height="80" as="geometry" />
        </mxCell>
        <mxCell id="CkIWeGJ3tONo70NuX__L-12" value="" style="points=[[0.25,0.25,0],[0.5,0,0],[0.75,0.25,0],[1,0.5,0],[0.75,0.75,0],[0.5,1,0],[0.25,0.75,0],[0,0.5,0]];shape=mxgraph.bpmn.gateway2;html=1;verticalLabelPosition=bottom;labelBackgroundColor=#ffffff;verticalAlign=top;align=center;perimeter=rhombusPerimeter;outlineConnect=0;outline=none;symbol=none;gwType=exclusive;strokeWidth=2;" vertex="1" parent="CkIWeGJ3tONo70NuX__L-1">
          <mxGeometry x="1160" y="102.5" width="50" height="50" as="geometry" />
        </mxCell>
        <mxCell id="CkIWeGJ3tONo70NuX__L-13" value="" style="points=[[0.145,0.145,0],[0.5,0,0],[0.855,0.145,0],[1,0.5,0],[0.855,0.855,0],[0.5,1,0],[0.145,0.855,0],[0,0.5,0]];shape=mxgraph.bpmn.event;html=1;verticalLabelPosition=bottom;labelBackgroundColor=#ffffff;verticalAlign=top;align=center;perimeter=ellipsePerimeter;outlineConnect=0;aspect=fixed;outline=end;symbol=terminate2;" vertex="1" parent="CkIWeGJ3tONo70NuX__L-1">
          <mxGeometry x="1285" y="102.5" width="50" height="50" as="geometry" />
        </mxCell>
        <mxCell id="CkIWeGJ3tONo70NuX__L-14" value="&lt;font style=&quot;font-size: 16px;&quot; face=&quot;Sarabun&quot;&gt;&lt;b style=&quot;&quot;&gt;จบ&lt;/b&gt;&lt;/font&gt;" style="text;html=1;strokeColor=none;fillColor=none;align=center;verticalAlign=middle;whiteSpace=wrap;rounded=0;" vertex="1" parent="CkIWeGJ3tONo70NuX__L-1">
          <mxGeometry x="1270" y="152.5" width="80" height="30" as="geometry" />
        </mxCell>
        <mxCell id="CkIWeGJ3tONo70NuX__L-15" value="&lt;font style=&quot;font-size: 16px;&quot; data-font-src=&quot;https://fonts.googleapis.com/css?family=Sarabun&quot; face=&quot;Sarabun&quot;&gt;&lt;b&gt;ไม่ผ่าน&lt;/b&gt;&lt;/font&gt;" style="text;html=1;align=center;verticalAlign=middle;whiteSpace=wrap;rounded=0;" vertex="1" parent="CkIWeGJ3tONo70NuX__L-1">
          <mxGeometry x="1210" y="127.5" width="60" height="30" as="geometry" />
        </mxCell>
        <mxCell id="CkIWeGJ3tONo70NuX__L-16" value="&lt;font style=&quot;font-size: 16px;&quot; data-font-src=&quot;https://fonts.googleapis.com/css?family=Sarabun&quot; face=&quot;Sarabun&quot;&gt;&lt;b&gt;ผ่าน&lt;/b&gt;&lt;/font&gt;" style="text;html=1;align=center;verticalAlign=middle;whiteSpace=wrap;rounded=0;" vertex="1" parent="CkIWeGJ3tONo70NuX__L-1">
          <mxGeometry x="1180" y="30" width="60" height="30" as="geometry" />
        </mxCell>
        <mxCell id="CkIWeGJ3tONo70NuX__L-17" value="&lt;font style=&quot;font-size: 16px;&quot; face=&quot;Sarabun&quot;&gt;&lt;b style=&quot;&quot;&gt;รับข้อมูลการยืมอุปกรณ์&lt;/b&gt;&lt;/font&gt;" style="points=[[0.25,0,0],[0.5,0,0],[0.75,0,0],[1,0.25,0],[1,0.5,0],[1,0.75,0],[0.75,1,0],[0.5,1,0],[0.25,1,0],[0,0.75,0],[0,0.5,0],[0,0.25,0]];shape=mxgraph.bpmn.task;whiteSpace=wrap;rectStyle=rounded;size=10;html=1;container=1;expand=0;collapsible=0;taskMarker=user;strokeWidth=2;" vertex="1" parent="CkIWeGJ3tONo70NuX__L-1">
          <mxGeometry x="160" y="87.5" width="120" height="80" as="geometry" />
        </mxCell>
        <mxCell id="CkIWeGJ3tONo70NuX__L-18" value="" style="edgeStyle=elbowEdgeStyle;fontSize=12;html=1;endArrow=blockThin;endFill=1;rounded=0;exitX=1;exitY=0.5;exitDx=0;exitDy=0;exitPerimeter=0;entryX=0;entryY=0.5;entryDx=0;entryDy=0;entryPerimeter=0;strokeWidth=2;" edge="1" parent="CkIWeGJ3tONo70NuX__L-1" source="CkIWeGJ3tONo70NuX__L-17" target="CkIWeGJ3tONo70NuX__L-6">
          <mxGeometry width="160" relative="1" as="geometry">
            <mxPoint x="130" y="355" as="sourcePoint" />
            <mxPoint x="170" y="355" as="targetPoint" />
          </mxGeometry>
        </mxCell>
        <mxCell id="CkIWeGJ3tONo70NuX__L-19" value="" style="points=[[0.145,0.145,0],[0.5,0,0],[0.855,0.145,0],[1,0.5,0],[0.855,0.855,0],[0.5,1,0],[0.145,0.855,0],[0,0.5,0]];shape=mxgraph.bpmn.event;html=1;verticalLabelPosition=bottom;labelBackgroundColor=#ffffff;verticalAlign=top;align=center;perimeter=ellipsePerimeter;outlineConnect=0;aspect=fixed;outline=standard;symbol=general;strokeWidth=2;" vertex="1" parent="CkIWeGJ3tONo70NuX__L-1">
          <mxGeometry x="80" y="107.5" width="40" height="40" as="geometry" />
        </mxCell>
        <mxCell id="CkIWeGJ3tONo70NuX__L-20" value="" style="edgeStyle=elbowEdgeStyle;fontSize=12;html=1;endArrow=blockThin;endFill=1;rounded=0;exitX=1;exitY=0.5;exitDx=0;exitDy=0;exitPerimeter=0;entryX=0;entryY=0.5;entryDx=0;entryDy=0;entryPerimeter=0;strokeWidth=2;" edge="1" parent="CkIWeGJ3tONo70NuX__L-1" source="CkIWeGJ3tONo70NuX__L-19" target="CkIWeGJ3tONo70NuX__L-17">
          <mxGeometry width="160" relative="1" as="geometry">
            <mxPoint x="400" y="52.5" as="sourcePoint" />
            <mxPoint x="160" y="127.5" as="targetPoint" />
          </mxGeometry>
        </mxCell>
        <mxCell id="CkIWeGJ3tONo70NuX__L-21" value="&lt;font style=&quot;font-size: 16px;&quot;&gt;ผู้ยืม&lt;/font&gt;" style="swimlane;startSize=40;horizontal=0;html=1;whiteSpace=wrap;" vertex="1" parent="1">
          <mxGeometry x="80" y="350" width="1360" height="240" as="geometry" />
        </mxCell>
        <mxCell id="CkIWeGJ3tONo70NuX__L-22" value="" style="points=[[0.145,0.145,0],[0.5,0,0],[0.855,0.145,0],[1,0.5,0],[0.855,0.855,0],[0.5,1,0],[0.145,0.855,0],[0,0.5,0]];shape=mxgraph.bpmn.event;html=1;verticalLabelPosition=bottom;labelBackgroundColor=#ffffff;verticalAlign=top;align=center;perimeter=ellipsePerimeter;outlineConnect=0;aspect=fixed;outline=standard;symbol=general;strokeWidth=2;" vertex="1" parent="CkIWeGJ3tONo70NuX__L-21">
          <mxGeometry x="80" y="135" width="40" height="40" as="geometry" />
        </mxCell>
        <mxCell id="CkIWeGJ3tONo70NuX__L-23" value="&lt;font style=&quot;font-size: 16px;&quot; face=&quot;Sarabun&quot;&gt;&lt;b style=&quot;&quot;&gt;กรอกข้อมูลการยืมอุปกรณ์&lt;/b&gt;&lt;/font&gt;" style="points=[[0.25,0,0],[0.5,0,0],[0.75,0,0],[1,0.25,0],[1,0.5,0],[1,0.75,0],[0.75,1,0],[0.5,1,0],[0.25,1,0],[0,0.75,0],[0,0.5,0],[0,0.25,0]];shape=mxgraph.bpmn.task;whiteSpace=wrap;rectStyle=rounded;size=10;html=1;container=1;expand=0;collapsible=0;taskMarker=manual;strokeWidth=2;" vertex="1" parent="CkIWeGJ3tONo70NuX__L-21">
          <mxGeometry x="160" y="115" width="120" height="80" as="geometry" />
        </mxCell>
        <mxCell id="CkIWeGJ3tONo70NuX__L-24" value="" style="edgeStyle=elbowEdgeStyle;fontSize=12;html=1;endArrow=blockThin;endFill=1;rounded=0;exitX=1;exitY=0.5;exitDx=0;exitDy=0;exitPerimeter=0;entryX=0;entryY=0.5;entryDx=0;entryDy=0;entryPerimeter=0;strokeWidth=2;" edge="1" parent="CkIWeGJ3tONo70NuX__L-21" source="CkIWeGJ3tONo70NuX__L-22" target="CkIWeGJ3tONo70NuX__L-23">
          <mxGeometry width="160" relative="1" as="geometry">
            <mxPoint x="400" y="80" as="sourcePoint" />
            <mxPoint x="560" y="80" as="targetPoint" />
          </mxGeometry>
        </mxCell>
        <mxCell id="CkIWeGJ3tONo70NuX__L-25" value="&lt;font style=&quot;font-size: 16px;&quot; face=&quot;Sarabun&quot;&gt;&lt;b style=&quot;&quot;&gt;3 เดือน&lt;/b&gt;&lt;/font&gt;" style="text;html=1;strokeColor=none;fillColor=none;align=center;verticalAlign=middle;whiteSpace=wrap;rounded=0;" vertex="1" parent="CkIWeGJ3tONo70NuX__L-21">
          <mxGeometry x="855" y="175" width="80" height="30" as="geometry" />
        </mxCell>
        <mxCell id="CkIWeGJ3tONo70NuX__L-26" value="" style="shape=mxgraph.bpmn.data;labelPosition=center;verticalLabelPosition=bottom;align=center;verticalAlign=top;size=15;html=1;" vertex="1" parent="CkIWeGJ3tONo70NuX__L-21">
          <mxGeometry x="400" y="115" width="53.33" height="80" as="geometry" />
        </mxCell>
        <mxCell id="CkIWeGJ3tONo70NuX__L-27" value="" style="points=[[0.145,0.145,0],[0.5,0,0],[0.855,0.145,0],[1,0.5,0],[0.855,0.855,0],[0.5,1,0],[0.145,0.855,0],[0,0.5,0]];shape=mxgraph.bpmn.event;html=1;verticalLabelPosition=bottom;labelBackgroundColor=#ffffff;verticalAlign=top;align=center;perimeter=ellipsePerimeter;outlineConnect=0;aspect=fixed;outline=standard;symbol=timer;strokeWidth=2;" vertex="1" parent="CkIWeGJ3tONo70NuX__L-21">
          <mxGeometry x="870" y="120" width="50" height="50" as="geometry" />
        </mxCell>
        <mxCell id="CkIWeGJ3tONo70NuX__L-28" value="&lt;font face=&quot;Sarabun&quot;&gt;&lt;span&gt;เอกสารการขอยืมอุปกรณ์&lt;/span&gt;&lt;/font&gt;" style="text;html=1;strokeColor=none;fillColor=none;align=center;verticalAlign=middle;whiteSpace=wrap;rounded=0;fontStyle=1;fontSize=14;" vertex="1" parent="CkIWeGJ3tONo70NuX__L-21">
          <mxGeometry x="371.67" y="195" width="110" height="35" as="geometry" />
        </mxCell>
        <mxCell id="CkIWeGJ3tONo70NuX__L-29" value="" style="html=1;shape=mxgraph.flowchart.annotation_2;align=left;labelPosition=right;" vertex="1" parent="CkIWeGJ3tONo70NuX__L-21">
          <mxGeometry x="460" y="115" width="50" height="90" as="geometry" />
        </mxCell>
        <mxCell id="CkIWeGJ3tONo70NuX__L-30" value="&lt;span style=&quot;font-family: Sarabun; background-color: initial;&quot;&gt;- ชื่อ-นามสกุล/เลขบัตร ปชช./อายุ/ที่อยู่&lt;/span&gt;&lt;div&gt;&lt;div&gt;&lt;span style=&quot;font-family: Sarabun; background-color: initial;&quot;&gt;- โรค&lt;/span&gt;&lt;/div&gt;&lt;div&gt;&lt;span style=&quot;font-family: Sarabun; background-color: initial;&quot;&gt;- อุปกรณ์ที่ยืม&lt;/span&gt;&lt;/div&gt;&lt;div&gt;&lt;font face=&quot;Sarabun&quot;&gt;- วันที่ยืม/วันที่ส่ง&lt;/font&gt;&lt;/div&gt;&lt;/div&gt;" style="text;html=1;strokeColor=none;fillColor=none;align=left;verticalAlign=middle;whiteSpace=wrap;rounded=0;fontStyle=1;fontSize=14;" vertex="1" parent="CkIWeGJ3tONo70NuX__L-21">
          <mxGeometry x="487.5" y="115" width="230" height="90" as="geometry" />
        </mxCell>
        <mxCell id="CkIWeGJ3tONo70NuX__L-31" value="" style="edgeStyle=elbowEdgeStyle;fontSize=12;html=1;endArrow=blockThin;endFill=1;rounded=0;exitX=1;exitY=0.5;exitDx=0;exitDy=0;exitPerimeter=0;strokeWidth=2;entryX=0;entryY=0.5;entryDx=0;entryDy=0;entryPerimeter=0;" edge="1" parent="CkIWeGJ3tONo70NuX__L-21" source="CkIWeGJ3tONo70NuX__L-35" target="CkIWeGJ3tONo70NuX__L-34">
          <mxGeometry width="160" relative="1" as="geometry">
            <mxPoint x="1090" y="144.86" as="sourcePoint" />
            <mxPoint x="1140" y="144.86" as="targetPoint" />
          </mxGeometry>
        </mxCell>
        <mxCell id="CkIWeGJ3tONo70NuX__L-32" value="&lt;b style=&quot;font-family: Sarabun; font-size: 16px;&quot;&gt;ไม่ต่อสัญญา&lt;/b&gt;" style="text;html=1;align=center;verticalAlign=middle;whiteSpace=wrap;rounded=0;" vertex="1" parent="CkIWeGJ3tONo70NuX__L-21">
          <mxGeometry x="1030" y="155" width="90" height="30" as="geometry" />
        </mxCell>
        <mxCell id="CkIWeGJ3tONo70NuX__L-33" value="&lt;font style=&quot;font-size: 16px;&quot; face=&quot;Sarabun&quot;&gt;&lt;b style=&quot;&quot;&gt;จบ&lt;/b&gt;&lt;/font&gt;" style="text;html=1;strokeColor=none;fillColor=none;align=center;verticalAlign=middle;whiteSpace=wrap;rounded=0;" vertex="1" parent="CkIWeGJ3tONo70NuX__L-21">
          <mxGeometry x="1175" y="175" width="80" height="30" as="geometry" />
        </mxCell>
        <mxCell id="CkIWeGJ3tONo70NuX__L-34" value="" style="points=[[0.145,0.145,0],[0.5,0,0],[0.855,0.145,0],[1,0.5,0],[0.855,0.855,0],[0.5,1,0],[0.145,0.855,0],[0,0.5,0]];shape=mxgraph.bpmn.event;html=1;verticalLabelPosition=bottom;labelBackgroundColor=#ffffff;verticalAlign=top;align=center;perimeter=ellipsePerimeter;outlineConnect=0;aspect=fixed;outline=end;symbol=terminate2;" vertex="1" parent="CkIWeGJ3tONo70NuX__L-21">
          <mxGeometry x="1190" y="120" width="50" height="50" as="geometry" />
        </mxCell>
        <mxCell id="CkIWeGJ3tONo70NuX__L-35" value="" style="points=[[0.25,0.25,0],[0.5,0,0],[0.75,0.25,0],[1,0.5,0],[0.75,0.75,0],[0.5,1,0],[0.25,0.75,0],[0,0.5,0]];shape=mxgraph.bpmn.gateway2;html=1;verticalLabelPosition=bottom;labelBackgroundColor=#ffffff;verticalAlign=top;align=center;perimeter=rhombusPerimeter;outlineConnect=0;outline=none;symbol=none;gwType=exclusive;strokeWidth=2;" vertex="1" parent="CkIWeGJ3tONo70NuX__L-21">
          <mxGeometry x="990" y="120" width="50" height="50" as="geometry" />
        </mxCell>
        <mxCell id="CkIWeGJ3tONo70NuX__L-36" value="&lt;font style=&quot;font-size: 16px;&quot; data-font-src=&quot;https://fonts.googleapis.com/css?family=Sarabun&quot; face=&quot;Sarabun&quot;&gt;&lt;b&gt;ต่อสัญญา&lt;/b&gt;&lt;/font&gt;" style="text;html=1;align=center;verticalAlign=middle;whiteSpace=wrap;rounded=0;" vertex="1" parent="CkIWeGJ3tONo70NuX__L-21">
          <mxGeometry x="1015" y="90" width="75" height="30" as="geometry" />
        </mxCell>
        <mxCell id="CkIWeGJ3tONo70NuX__L-37" value="" style="edgeStyle=elbowEdgeStyle;fontSize=12;html=1;endArrow=blockThin;endFill=1;rounded=0;exitX=1;exitY=0.5;exitDx=0;exitDy=0;exitPerimeter=0;strokeWidth=2;entryX=0;entryY=0.5;entryDx=0;entryDy=0;entryPerimeter=0;" edge="1" parent="CkIWeGJ3tONo70NuX__L-21" source="CkIWeGJ3tONo70NuX__L-27" target="CkIWeGJ3tONo70NuX__L-35">
          <mxGeometry width="160" relative="1" as="geometry">
            <mxPoint x="600" y="-25" as="sourcePoint" />
            <mxPoint x="950" y="145" as="targetPoint" />
          </mxGeometry>
        </mxCell>
        <mxCell id="CkIWeGJ3tONo70NuX__L-38" value="" style="fontSize=12;html=1;endFill=0;startFill=0;endSize=6;startSize=6;dashed=1;dashPattern=1 4;endArrow=openThin;startArrow=none;rounded=0;entryX=0;entryY=0.5;entryDx=0;entryDy=0;entryPerimeter=0;exitX=1;exitY=0.5;exitDx=0;exitDy=0;exitPerimeter=0;strokeWidth=2;edgeStyle=orthogonalEdgeStyle;" edge="1" parent="CkIWeGJ3tONo70NuX__L-21" source="CkIWeGJ3tONo70NuX__L-23" target="CkIWeGJ3tONo70NuX__L-26">
          <mxGeometry width="160" relative="1" as="geometry">
            <mxPoint x="330" y="150" as="sourcePoint" />
            <mxPoint x="326.66499999999996" y="140" as="targetPoint" />
          </mxGeometry>
        </mxCell>
        <mxCell id="CkIWeGJ3tONo70NuX__L-39" value="" style="points=[[0.25,0.25,0],[0.5,0,0],[0.75,0.25,0],[1,0.5,0],[0.75,0.75,0],[0.5,1,0],[0.25,0.75,0],[0,0.5,0]];shape=mxgraph.bpmn.gateway2;html=1;verticalLabelPosition=bottom;labelBackgroundColor=#ffffff;verticalAlign=top;align=center;perimeter=rhombusPerimeter;outlineConnect=0;outline=none;symbol=none;gwType=parallel;" vertex="1" parent="CkIWeGJ3tONo70NuX__L-21">
          <mxGeometry x="195" y="10" width="50" height="50" as="geometry" />
        </mxCell>
        <mxCell id="CkIWeGJ3tONo70NuX__L-40" value="" style="edgeStyle=elbowEdgeStyle;fontSize=12;html=1;endArrow=blockThin;endFill=1;rounded=0;exitX=0.5;exitY=0;exitDx=0;exitDy=0;exitPerimeter=0;strokeWidth=2;" edge="1" parent="CkIWeGJ3tONo70NuX__L-21" source="CkIWeGJ3tONo70NuX__L-23" target="CkIWeGJ3tONo70NuX__L-39">
          <mxGeometry width="160" relative="1" as="geometry">
            <mxPoint x="490" y="105" as="sourcePoint" />
            <mxPoint x="220" y="35" as="targetPoint" />
            <Array as="points" />
          </mxGeometry>
        </mxCell>
        <mxCell id="CkIWeGJ3tONo70NuX__L-41" value="" style="edgeStyle=elbowEdgeStyle;fontSize=12;html=1;endArrow=blockThin;endFill=1;rounded=0;exitX=1;exitY=0.5;exitDx=0;exitDy=0;exitPerimeter=0;strokeWidth=2;entryX=0;entryY=0.5;entryDx=0;entryDy=0;entryPerimeter=0;" edge="1" parent="1" source="CkIWeGJ3tONo70NuX__L-10" target="CkIWeGJ3tONo70NuX__L-27">
          <mxGeometry width="160" relative="1" as="geometry">
            <mxPoint x="620" y="260" as="sourcePoint" />
            <mxPoint x="870" y="430" as="targetPoint" />
          </mxGeometry>
        </mxCell>
        <mxCell id="CkIWeGJ3tONo70NuX__L-42" value="" style="edgeStyle=orthogonalEdgeStyle;fontSize=12;html=1;endArrow=blockThin;endFill=1;rounded=0;exitX=0.5;exitY=0;exitDx=0;exitDy=0;exitPerimeter=0;entryX=0.5;entryY=0;entryDx=0;entryDy=0;entryPerimeter=0;strokeWidth=2;" edge="1" parent="1" source="CkIWeGJ3tONo70NuX__L-12" target="CkIWeGJ3tONo70NuX__L-27">
          <mxGeometry width="160" relative="1" as="geometry">
            <mxPoint x="1160" y="300" as="sourcePoint" />
            <mxPoint x="1320" y="300" as="targetPoint" />
            <Array as="points">
              <mxPoint x="1265" y="140" />
              <mxPoint x="975" y="140" />
            </Array>
          </mxGeometry>
        </mxCell>
        <mxCell id="CkIWeGJ3tONo70NuX__L-43" value="" style="edgeStyle=orthogonalEdgeStyle;fontSize=12;html=1;endArrow=blockThin;endFill=1;rounded=0;exitX=0.5;exitY=0;exitDx=0;exitDy=0;exitPerimeter=0;strokeWidth=2;entryX=0.5;entryY=1;entryDx=0;entryDy=0;entryPerimeter=0;" edge="1" parent="1" source="CkIWeGJ3tONo70NuX__L-35" target="CkIWeGJ3tONo70NuX__L-11">
          <mxGeometry width="160" relative="1" as="geometry">
            <mxPoint x="970" y="390" as="sourcePoint" />
            <mxPoint x="1095" y="245" as="targetPoint" />
            <Array as="points" />
          </mxGeometry>
        </mxCell>
        <mxCell id="CkIWeGJ3tONo70NuX__L-44" value="&lt;b&gt;&lt;font style=&quot;font-size: 25px;&quot;&gt;BPMN ภาพรวมของระบบยืม-คืนอุปกรณ์ทางการแพทย์แบบเดิม&lt;/font&gt;&lt;/b&gt;" style="text;html=1;align=left;verticalAlign=middle;whiteSpace=wrap;rounded=0;fontFamily=Sarabun;fontSource=https%3A%2F%2Ffonts.googleapis.com%2Fcss%3Ffamily%3DSarabun;" vertex="1" parent="1">
          <mxGeometry x="80" y="70" width="710" height="30" as="geometry" />
        </mxCell>
        <mxCell id="CkIWeGJ3tONo70NuX__L-45" value="" style="fontSize=12;html=1;endFill=0;startFill=0;endSize=6;startSize=6;dashed=1;dashPattern=1 4;endArrow=openThin;startArrow=none;rounded=0;entryX=0.77;entryY=0.993;entryDx=0;entryDy=0;entryPerimeter=0;exitX=0.5;exitY=0;exitDx=0;exitDy=0;exitPerimeter=0;strokeWidth=2;edgeStyle=orthogonalEdgeStyle;" edge="1" parent="1" source="CkIWeGJ3tONo70NuX__L-26" target="CkIWeGJ3tONo70NuX__L-17">
          <mxGeometry width="160" relative="1" as="geometry">
            <mxPoint x="373" y="496" as="sourcePoint" />
            <mxPoint x="417" y="460" as="targetPoint" />
            <Array as="points">
              <mxPoint x="507" y="330" />
              <mxPoint x="332" y="330" />
            </Array>
          </mxGeometry>
        </mxCell>
        <mxCell id="CkIWeGJ3tONo70NuX__L-46" value="" style="edgeStyle=elbowEdgeStyle;fontSize=12;html=1;endArrow=blockThin;endFill=1;rounded=0;exitX=0.5;exitY=0;exitDx=0;exitDy=0;exitPerimeter=0;strokeWidth=2;entryX=0.5;entryY=1;entryDx=0;entryDy=0;entryPerimeter=0;" edge="1" parent="1" source="CkIWeGJ3tONo70NuX__L-39" target="CkIWeGJ3tONo70NuX__L-17">
          <mxGeometry width="160" relative="1" as="geometry">
            <mxPoint x="310" y="475" as="sourcePoint" />
            <mxPoint x="310" y="420" as="targetPoint" />
            <Array as="points" />
          </mxGeometry>
        </mxCell>
        <mxCell id="CkIWeGJ3tONo70NuX__L-47" value="" style="edgeStyle=orthogonalEdgeStyle;fontSize=12;html=1;endArrow=blockThin;endFill=1;rounded=0;exitX=0.5;exitY=1;exitDx=0;exitDy=0;exitPerimeter=0;strokeWidth=2;entryX=1;entryY=0.5;entryDx=0;entryDy=0;entryPerimeter=0;" edge="1" parent="1" source="CkIWeGJ3tONo70NuX__L-7" target="CkIWeGJ3tONo70NuX__L-39">
          <mxGeometry width="160" relative="1" as="geometry">
            <mxPoint x="480" y="380" as="sourcePoint" />
            <mxPoint x="180" y="180" as="targetPoint" />
            <Array as="points">
              <mxPoint x="685" y="385" />
            </Array>
          </mxGeometry>
        </mxCell>
      </root>
    </mxGraphModel>
  </diagram>
</mxfile>
